PathFileType	4	(X/Y/Z)	Patient5_TMGait_0pt45_1_right_10.trc.trc
DataRate	CameraRate	NumFrames	NumMarkers	Units	OrigDataRate	OrigDataStartFrame	OrigNumFrames
58.333333333333	58.333333333333	4	32	mm	58.333333333333	124	       141
Frame#	Time	R.ASIS			L.ASIS			Chest			R.Shoulder			Neck			L.Shoulder			L.Elbow			L.Wrist			R.Elbow			R.Wrist			L.Thigh.Superior			L.Thigh.Lateral			L.Thigh.Inferior			L.Patella			L.Shank.Superior			L.Shank.Lateral			L.Shank.Inferior			L.Heel			L.Midfoot.Lateral			L.Midfoot.Superior			L.Toe			R.Thigh.Superior			R.Thigh.Lateral			R.Thigh.Inferior			R.Patella			R.Shank.Superior			R.Shank.Lateral			R.Shank.Inferior			R.Heel			R.Midfoot.Lateral			R.Midfoot.Superior			R.Toe			
		X1	Y1	Z1	X2	Y2	Z2	X3	Y3	Z3	X4	Y4	Z4	X5	Y5	Z5	X6	Y6	Z6	X7	Y7	Z7	X8	Y8	Z8	X9	Y9	Z9	X10	Y10	Z10	X11	Y11	Z11	X12	Y12	Z12	X13	Y13	Z13	X14	Y14	Z14	X15	Y15	Z15	X16	Y16	Z16	X17	Y17	Z17	X18	Y18	Z18	X19	Y19	Z19	X20	Y20	Z20	X21	Y21	Z21	X22	Y22	Z22	X23	Y23	Z23	X24	Y24	Z24	X25	Y25	Z25	X26	Y26	Z26	X27	Y27	Z27	X28	Y28	Z28	X29	Y29	Z29	X30	Y30	Z30	X31	Y31	Z31	X32	Y32	Z32	

124	18.428571428571	943.804402247840	975.242100833799	535.145386049261	918.646909784400	948.771819272483	293.761479436634	979.660590918592	1428.150840482247	421.058911383737	876.416204523994	1487.627442984380	588.763895763824	852.167948244075	1547.349557156131	404.597767514659	915.719091284585	1490.754318716679	224.287547646784	871.537188092073	1167.712626657893	93.313957769997	994.788762296410	906.097495522873	121.839812664689	779.541400141715	1173.740513398209	730.505826774736	988.242992381004	983.376234075124	660.548659799121	886.381145489089	720.628992782080	292.172095392272	788.552305549646	670.175305507690	260.869716539024	847.201805011115	594.655217839476	313.677642349645	803.998423682290	478.272074793800	317.382404065263	734.250933103732	393.489530943569	344.908712166589	639.762420217284	349.772491024670	278.044664898377	671.879757370955	284.241126368665	360.201388749763	484.083342470853	74.767808085897	370.400714756339	569.658602189209	39.539705662855	311.755428494294	671.388264518533	92.040434924291	350.498566393011	770.837150036345	44.748411704208	360.423726987521	998.143716423198	752.879274249914	561.718874166871	936.959120256387	662.986041484915	624.364989421982	1022.217931506610	627.156848286003	545.522871239074	1047.528531130211	532.198486336449	579.811636027543	1018.651068042858	425.404379242064	545.202866665964	954.129526115708	349.369213557295	626.517392767727	1016.325640019637	284.907639286058	545.485657393646	918.918563935109	55.136017484881	514.738035614103	998.551800210240	24.896244425715	586.576422726062	1100.998963155663	95.847131605364	569.729918302250	1206.344981412331	57.659446795134	567.893552228414	
125	18.445714285714	948.252615454731	972.809345662486	538.295858408705	922.366720613202	947.919907715862	296.780017852499	983.443687609194	1427.025234584545	425.339587746140	881.850430391564	1485.600378332983	594.348658765062	855.515191259173	1546.139662009614	410.536231527271	916.650739079611	1490.096800881777	229.229879249968	866.827776063455	1168.527989509425	96.733280168278	987.180656836556	905.050298699787	120.232246660466	787.809012316685	1170.680186724037	735.906474165129	995.185789245279	980.127732126228	662.512574465388	889.849588224406	719.785420159923	293.939397723395	791.969377741339	669.491486950206	262.470260856971	851.028976291792	593.714620765453	314.539821836635	806.895249535797	475.460670616976	317.424825173240	735.075811642387	392.125724566619	344.913945583913	639.482190644152	350.756479663917	277.964937018173	670.037126465606	284.373963213774	360.069287625523	477.468805717448	78.608498089345	369.879567326958	562.648979147688	41.468538784258	311.510371207366	665.304028409437	92.312632217725	349.847373572124	763.332689599496	44.704592628406	360.328956606821	999.910394667656	749.085473123032	563.025163564449	937.291859083500	659.728073551353	625.061205738482	1021.956710999410	623.453574756954	545.623197660057	1045.995119952408	527.958776519222	578.551138056530	1016.045270495936	421.765298122953	543.447403137538	951.774896112087	345.947867820644	624.990976037310	1012.633789761089	281.370990649181	543.046908466105	912.760291746814	52.927868400064	512.055969565931	991.773385641049	23.407995337044	584.671528934834	1095.430188838416	92.003487387614	565.584754608542	1200.303800277399	51.819692257736	564.861707892871	
126	18.462857142857	952.393783648543	971.066648479456	541.688883547527	925.944226600817	947.394449005013	300.229957798419	987.629833386861	1426.379049843559	429.815433578626	887.569668404969	1484.171700864482	599.952204612216	859.471534559897	1545.562665582694	416.453006582047	918.286396336170	1490.001033060042	234.300577461695	862.318205396097	1169.991071188534	100.684856378189	979.539494570775	904.667955562989	118.904428311882	796.731224987882	1168.090548603826	741.231527882359	1002.657347297646	977.293262476299	664.425265850821	894.148469299419	719.382854232529	296.013058452455	796.599219073402	668.920173997798	263.992007164314	856.181969367877	593.067718273866	315.475747654419	811.591235924129	472.534230701642	317.128661721387	737.395855588668	390.746765571834	344.541651175568	640.665597741289	351.995118039610	277.488033485348	669.381482875473	284.828210908974	359.688760029941	471.454982842415	83.696750352734	369.174093017323	555.957252747497	43.962756902032	311.190370146330	659.840790662650	92.528511791359	349.051249678195	755.958447863793	44.632285188581	360.258855823875	1002.297900434307	746.887959095686	564.865228391052	938.848234599483	657.862209471767	626.291934802681	1023.044366884910	621.384170731674	546.387842052576	1045.961181179949	525.234198076020	577.994777190045	1014.382951631398	419.340381474713	542.529401784212	950.345937942595	344.033084087597	624.501680531102	1009.264941728592	279.108387784740	541.425691531619	905.967382021967	51.815844578029	510.342604347888	984.505616113760	23.006438595784	583.588380149211	1089.218472517507	89.503098406023	562.434519295549	1193.664383761055	47.589902675292	562.682704257883	
127	18.480000000000	956.230298231819	970.035654911811	545.322570958060	929.355625666729	947.309681939890	304.041989195962	992.163964149580	1426.226656736979	434.447677641621	893.505238633780	1483.410719067091	605.506911285475	863.983244757795	1545.631004653373	422.275538753985	920.695545458522	1490.520653527999	239.459097830174	858.076466956062	1172.204616486012	105.122691611505	971.899715041010	905.051581067871	117.983238382308	806.123339000447	1166.124480713936	746.444167630999	1010.611870606438	975.157440500105	666.287025199068	899.276697255839	719.469775767463	298.208385759873	802.479548983657	668.480418157247	265.260266638430	862.792112319434	592.739807139905	316.242616407236	818.351167979393	469.553869207208	316.188654553562	741.496113873904	389.366139257686	343.576815371550	643.563398843666	353.533558501663	276.466696425469	670.191148333493	285.690834537969	358.905716112885	466.330334604898	90.429039966403	368.216612639786	549.679299831897	47.274605956973	310.756252815628	655.104040784770	92.705405130486	348.068663628365	748.672702933427	44.502494448626	360.213218133361	1005.312183961691	746.076656741666	567.491642274574	941.348622525497	657.158032900690	628.107342862843	1025.401255501315	620.655160500121	548.081933342794	1047.156890254697	523.733935786380	578.470613380500	1013.544655352743	417.922425690788	542.637698947391	949.525564400392	343.358251436474	625.070560880970	1006.171559729629	277.909259415155	540.780048484702	898.702670138733	51.560814194163	509.522023084340	976.934975775468	23.306606159676	583.184086756917	1082.464763322740	88.149080883465	560.421204308088	1186.562963026461	44.922098915006	561.367173085928	
